<svg xmlns="http://www.w3.org/2000/svg" width="281" height="111"><path fill="#6B4C2A" d="M8.146 10.5h-3.824l1.76-9h16.45l-2.246 11.279c-.304 1.639-.668 2.721-.668 2.721h.121c2.004-2 5.038-2.597 7.467-2.597 7.708 0 12.321 5.591 12.321 14.089 0 11.29-8.68 19.014-17.299 19.014-2.854 0-6.374-.506-8.498-3.506h-.121s0 .681-.122 1.47l-.242 1.53h-11.776l6.677-35zm12.382 25.118c2.793 0 6.191-2.731 6.191-7.587 0-2.671-1.518-4.431-3.945-4.431-1.76 0-6.191 2.003-6.191 7.648 0 2.367 1.214 4.37 3.945 4.37z"/><path fill="#6B4C2A" d="M44.925 33.369l2.124-10.869h-3.885l1.821-9h16.511l-3.399 17.493c-.121.486-.304 1.523-.304 2.069 0 1.093.364 1.855 1.882 1.855 3.096 0 5.767-3.933 6.434-7.514l.911-4.903h-3.885l1.82-9h16.511l-3.642 18.646c-.062.304-.243 1.28-.243 2.191 0 1.031.364 1.976 2.428 1.976.364 0 .789-.044.789-.044l-1.699 8.992c-.183.061-4.249.215-6.312.215-3.643 0-6.799-.976-7.77-5.976h-.122c-2.853 4-6.373 6.466-10.804 6.466-5.1 0-9.53-2.899-9.53-8.969 0-1.275.181-2.718.364-3.628z"/><path fill="#6B4C2A" d="M102.888 12.934c5.645 0 7.162 2.566 7.162 2.566h.121s.062-.74.183-1.226l.729-3.774h-3.764l1.7-9h16.51l-5.948 30.717c0 .121-.243 1.124-.243 2.034 0 1.032.425 2.02 2.063 2.02.425 0 1.153-.053 1.153-.053l-1.699 9.048s-2.488.228-4.917.228c-3.945 0-8.134-.993-9.044-4.993h-.121c-2.55 4-6.07 5.42-9.955 5.42-6.859 0-11.775-5.476-11.775-14.096-.001-11.169 8.314-18.891 17.845-18.891zm-1.457 22.684c2.246 0 6.495-2.246 6.495-7.223 0-2.671-1.153-4.795-3.703-4.795-2.913 0-6.373 2.792-6.373 7.284 0 2.974 1.517 4.734 3.581 4.734z"/><path fill="#6B4C2A" d="M138.514 47.94c3.581 0 6.009-1.262 6.92-4.844.363-1.456.728-2.597.728-2.597h-.061c-2.003 2-4.127 3.508-6.98 3.508-8.619 0-12.321-6.198-12.321-13.421 0-8.802 6.19-17.439 16.874-17.439 6.495 0 8.315 4.353 8.315 4.353h.122c0-2 2.124-4 4.006-4h10.986l-1.82 9h-1.821c-.789 0-1.335.55-1.457 1.218l-3.642 18.211c-2.367 11.897-11.473 16.056-19.484 16.056-9.895 0-13.84-3.444-13.84-3.444l4.734-8.612c-.001 0 2.914 2.011 8.741 2.011zm4.734-14.264c3.46 0 5.645-3.703 5.645-6.616 0-3.035-2.003-3.581-4.066-3.581-3.277 0-5.281 2.428-5.281 6.07-.001 2.124.85 4.127 3.702 4.127z"/><path fill="#6B4C2A" d="M185.672 13.038c8.802 0 13.779 5.377 13.779 12.356 0 3.339-1.214 6.105-1.214 6.105h-18.393c-.061 3 2.064 4.153 4.796 4.153 4.431 0 9.165-2.992 9.165-2.992l3.156 9.278s-5.28 4.062-13.718 4.062c-10.865 0-16.024-6.679-16.024-14.874.001-9.952 7.831-18.088 18.453-18.088zm1.396 12.462s.121-.859.121-1.526c0-1.153-.364-2.788-2.245-2.788-2.246 0-3.399 2.314-3.946 4.314h6.07z"/><path fill="#6B4C2A" d="M203.026 22.5l1.7-9h4.31l1.639-8h12.079l-1.639 8h6.252l-1.7 9h-6.252l-1.639 8.744c-.121.607-.242 1.52-.242 2.005 0 1.76 2.063 2.277 4.37 2.277.85 0 1.639-.106 1.639-.106l-1.942 9.963s-1.882.186-3.217.186c-8.256 0-13.9-3.64-13.9-9.953 0-1.214.182-2.188.364-3.038l2.003-10.079h-3.825z"/><path fill="#997553" d="M63.042 63.5h-3.823l1.76-9h16.45l-2.246 11.279c-.304 1.639-.668 2.721-.668 2.721h.121c2.004-2 5.038-2.866 7.467-2.866 7.708 0 12.321 5.457 12.321 13.954 0 11.29-8.68 18.717-17.299 18.717-2.854 0-6.374-.805-8.498-3.805h-.121s0 .681-.122 1.47l-.242 1.53h-11.777l6.677-34zm12.383 24.579c2.793 0 6.191-2.731 6.191-7.587 0-2.672-1.518-4.432-3.945-4.432-1.76 0-6.191 2.004-6.191 7.648-.001 2.368 1.213 4.371 3.945 4.371z"/><path fill="#997553" d="M115.178 78.671s.304-1.093.304-1.882c0-1.336-1.882-1.578-3.096-1.578-3.824 0-9.227 2.854-9.227 2.854l-2.428-8.984s7.103-3.581 14.204-3.581c5.038 0 13.05 1.821 13.05 10.016 0 3.702-1.82 8.437-1.82 11.29 0 1.031.425 1.942 2.185 1.942.304 0 1.032-.062 1.032-.062l-1.761 9.045s-.606.343-4.491.343c-3.096 0-7.83.427-9.408-4.573h-.122s-3.642 4.938-9.712 4.938c-4.431 0-8.68-2.874-8.68-8.032 0-8.985 12.2-11.736 19.97-11.736zm-5.949 11.35c1.882 0 3.764-1.851 4.553-4.521l.304-1h-.972c-1.335 0-5.767.575-5.767 3.671.001 1.395 1.033 1.85 1.882 1.85z"/><path fill="#997553" d="M150.562 65.664c5.645 0 7.162 2.836 7.162 2.836h.121s.062-.74.183-1.227l.729-3.773h-3.764l1.7-9h16.51l-5.948 30.446c0 .122-.243.991-.243 1.901 0 1.031.425 1.951 2.063 1.951.425 0 1.153-.088 1.153-.088l-1.699 9.032s-2.488.489-4.917.489c-3.945 0-8.134-.732-9.044-4.732h-.121c-2.55 3-6.07 5.15-9.955 5.15-6.859 0-11.775-5.477-11.775-14.096-.001-11.166 8.314-18.889 17.845-18.889zm-1.458 22.415c2.246 0 6.495-2.245 6.495-7.224 0-2.67-1.153-4.795-3.703-4.795-2.913 0-6.373 2.793-6.373 7.284 0 2.974 1.518 4.735 3.581 4.735z"/><path fill="#997553" d="M186.188 100.401c3.581 0 6.009-.992 6.92-4.574.363-1.456.728-2.327.728-2.327h-.061c-2.003 2-4.127 3.238-6.98 3.238-8.619 0-12.321-6.332-12.321-13.557 0-8.801 6.19-17.736 16.874-17.736 6.495 0 8.315 4.055 8.315 4.055h.122c0-2 2.124-3 4.006-3h10.986l-1.82 9h-1.821c-.789 0-1.335.28-1.457.948l-3.642 18.077c-2.367 11.896-11.473 15.988-19.484 15.988-9.895 0-13.84-3.479-13.84-3.479l4.734-8.628c-.001.001 2.913 1.995 8.741 1.995zm4.734-14.264c3.46 0 5.645-3.703 5.645-6.616 0-3.034-2.003-3.581-4.066-3.581-3.277 0-5.281 2.428-5.281 6.07-.001 2.124.849 4.127 3.702 4.127z"/><path fill="#997553" d="M233.345 65.499c8.802 0 13.779 5.146 13.779 12.126 0 3.34-1.214 5.875-1.214 5.875h-18.393c-.061 3 2.064 4.384 4.796 4.384 4.431 0 9.165-2.876 9.165-2.876l3.157 9.336s-5.281 4.091-13.719 4.091c-10.865 0-16.024-6.665-16.024-14.858.001-9.956 7.831-18.078 18.453-18.078zm1.396 13.001s.121-1.128.121-1.796c0-1.153-.364-2.653-2.245-2.653-2.246 0-3.399 2.449-3.946 4.449h6.07z"/><path fill="#997553" d="M254.828 76.576c.121-.607-.061-1.076-1.093-1.076h-2.488l1.82-9h11.229c2.489 0 4.007.891 4.007 3.014 0 .973-.304 1.986-.729 3.986h.121c2.186-5 6.312-7.702 11.169-7.702.667 0 1.335-.028 1.335-.028l-2.428 12.399s-.547-.204-2.55-.204-8.072.056-9.712 8.614l-2.062 10.921h-12.687l4.068-20.924z"/></svg>